<svg width="639" height="324" viewBox="0 0 639 324" fill="none" xmlns="http://www.w3.org/2000/svg">
<path d="M87 161V77H111V113H123V101H135V89H147V77H171V89H159V101H147V113H135V125H147V137H159V149H171V161H135V149H123V137H111V161H87ZM182.04 161V77H266.04V89H206.04V113H254.04V125H206.04V149H266.04V161H182.04ZM313.08 161V149H301.08V137H289.08V125H277.08V77H301.08V113H313.08V125H325.08V113H337.08V77H361.08V125H349.08V137H337.08V149H325.08V161H313.08ZM384.12 161V149H408.12V89H384.12V77H456.12V89H432.12V149H456.12V161H384.12ZM467.16 161V77H491.16V89H503.16V101H515.16V113H527.16V77H551.16V161H527.16V137H515.16V125H503.16V113H491.16V161H467.16Z" fill="#FFC947"/>
<path d="M87 161H85C85 162.105 85.8954 163 87 163V161ZM87 77V75C85.8954 75 85 75.8954 85 77H87ZM111 77H113C113 75.8954 112.105 75 111 75V77ZM111 113H109C109 114.105 109.895 115 111 115V113ZM123 113V115C124.105 115 125 114.105 125 113H123ZM123 101V99C121.895 99 121 99.8954 121 101H123ZM135 101V103C136.105 103 137 102.105 137 101H135ZM135 89V87C133.895 87 133 87.8954 133 89H135ZM147 89V91C148.105 91 149 90.1046 149 89H147ZM147 77V75C145.895 75 145 75.8954 145 77H147ZM171 77H173C173 75.8954 172.105 75 171 75V77ZM171 89V91C172.105 91 173 90.1046 173 89H171ZM159 89V87C157.895 87 157 87.8954 157 89H159ZM159 101V103C160.105 103 161 102.105 161 101H159ZM147 101V99C145.895 99 145 99.8954 145 101H147ZM147 113V115C148.105 115 149 114.105 149 113H147ZM135 113V111C133.895 111 133 111.895 133 113H135ZM135 125H133C133 126.105 133.895 127 135 127V125ZM147 125H149C149 123.895 148.105 123 147 123V125ZM147 137H145C145 138.105 145.895 139 147 139V137ZM159 137H161C161 135.895 160.105 135 159 135V137ZM159 149H157C157 150.105 157.895 151 159 151V149ZM171 149H173C173 147.895 172.105 147 171 147V149ZM171 161V163C172.105 163 173 162.105 173 161H171ZM135 161H133C133 162.105 133.895 163 135 163V161ZM135 149H137C137 147.895 136.105 147 135 147V149ZM123 149H121C121 150.105 121.895 151 123 151V149ZM123 137H125C125 135.895 124.105 135 123 135V137ZM111 137V135C109.895 135 109 135.895 109 137H111ZM111 161V163C112.105 163 113 162.105 113 161H111ZM89 161V77H85V161H89ZM87 79H111V75H87V79ZM109 77V113H113V77H109ZM111 115H123V111H111V115ZM125 113V101H121V113H125ZM123 103H135V99H123V103ZM137 101V89H133V101H137ZM135 91H147V87H135V91ZM149 89V77H145V89H149ZM147 79H171V75H147V79ZM169 77V89H173V77H169ZM171 87H159V91H171V87ZM157 89V101H161V89H157ZM159 99H147V103H159V99ZM145 101V113H149V101H145ZM147 111H135V115H147V111ZM133 113V125H137V113H133ZM135 127H147V123H135V127ZM145 125V137H149V125H145ZM147 139H159V135H147V139ZM157 137V149H161V137H157ZM159 151H171V147H159V151ZM169 149V161H173V149H169ZM171 159H135V163H171V159ZM137 161V149H133V161H137ZM135 147H123V151H135V147ZM125 149V137H121V149H125ZM123 135H111V139H123V135ZM109 137V161H113V137H109ZM111 159H87V163H111V159ZM182.04 161H180.04C180.04 162.105 180.935 163 182.04 163V161ZM182.04 77V75C180.935 75 180.04 75.8954 180.04 77H182.04ZM266.04 77H268.04C268.04 75.8954 267.145 75 266.04 75V77ZM266.04 89V91C267.145 91 268.04 90.1046 268.04 89H266.04ZM206.04 89V87C204.935 87 204.04 87.8954 204.04 89H206.04ZM206.04 113H204.04C204.04 114.105 204.935 115 206.04 115V113ZM254.04 113H256.04C256.04 111.895 255.145 111 254.04 111V113ZM254.04 125V127C255.145 127 256.04 126.105 256.04 125H254.04ZM206.04 125V123C204.935 123 204.04 123.895 204.04 125H206.04ZM206.04 149H204.04C204.04 150.105 204.935 151 206.04 151V149ZM266.04 149H268.04C268.04 147.895 267.145 147 266.04 147V149ZM266.04 161V163C267.145 163 268.04 162.105 268.04 161H266.04ZM184.04 161V77H180.04V161H184.04ZM182.04 79H266.04V75H182.04V79ZM264.04 77V89H268.04V77H264.04ZM266.04 87H206.04V91H266.04V87ZM204.04 89V113H208.04V89H204.04ZM206.04 115H254.04V111H206.04V115ZM252.04 113V125H256.04V113H252.04ZM254.04 123H206.04V127H254.04V123ZM204.04 125V149H208.04V125H204.04ZM206.04 151H266.04V147H206.04V151ZM264.04 149V161H268.04V149H264.04ZM266.04 159H182.04V163H266.04V159ZM313.08 161H311.08C311.08 162.105 311.975 163 313.08 163V161ZM313.08 149H315.08C315.08 147.895 314.185 147 313.08 147V149ZM301.08 149H299.08C299.08 150.105 299.975 151 301.08 151V149ZM301.08 137H303.08C303.08 135.895 302.185 135 301.08 135V137ZM289.08 137H287.08C287.08 138.105 287.975 139 289.08 139V137ZM289.08 125H291.08C291.08 123.895 290.185 123 289.08 123V125ZM277.08 125H275.08C275.08 126.105 275.975 127 277.08 127V125ZM277.08 77V75C275.975 75 275.08 75.8954 275.08 77H277.08ZM301.08 77H303.08C303.08 75.8954 302.185 75 301.08 75V77ZM301.08 113H299.08C299.08 114.105 299.975 115 301.08 115V113ZM313.08 113H315.08C315.08 111.895 314.185 111 313.08 111V113ZM313.08 125H311.08C311.08 126.105 311.975 127 313.08 127V125ZM325.08 125V127C326.185 127 327.08 126.105 327.08 125H325.08ZM325.08 113V111C323.975 111 323.08 111.895 323.08 113H325.08ZM337.08 113V115C338.185 115 339.08 114.105 339.08 113H337.08ZM337.08 77V75C335.975 75 335.08 75.8954 335.08 77H337.08ZM361.08 77H363.08C363.08 75.8954 362.185 75 361.08 75V77ZM361.08 125V127C362.185 127 363.08 126.105 363.08 125H361.08ZM349.08 125V123C347.975 123 347.08 123.895 347.08 125H349.08ZM349.08 137V139C350.185 139 351.08 138.105 351.08 137H349.08ZM337.08 137V135C335.975 135 335.08 135.895 335.08 137H337.08ZM337.08 149V151C338.185 151 339.08 150.105 339.08 149H337.08ZM325.08 149V147C323.975 147 323.08 147.895 323.08 149H325.08ZM325.08 161V163C326.185 163 327.08 162.105 327.08 161H325.08ZM315.08 161V149H311.08V161H315.08ZM313.08 147H301.08V151H313.08V147ZM303.08 149V137H299.08V149H303.08ZM301.08 135H289.08V139H301.08V135ZM291.08 137V125H287.08V137H291.08ZM289.08 123H277.08V127H289.08V123ZM279.08 125V77H275.08V125H279.08ZM277.08 79H301.08V75H277.08V79ZM299.08 77V113H303.08V77H299.08ZM301.08 115H313.08V111H301.08V115ZM311.08 113V125H315.08V113H311.08ZM313.08 127H325.08V123H313.08V127ZM327.08 125V113H323.08V125H327.08ZM325.08 115H337.08V111H325.08V115ZM339.08 113V77H335.08V113H339.08ZM337.08 79H361.08V75H337.08V79ZM359.08 77V125H363.08V77H359.08ZM361.08 123H349.08V127H361.08V123ZM347.08 125V137H351.08V125H347.08ZM349.08 135H337.08V139H349.08V135ZM335.08 137V149H339.08V137H335.08ZM337.08 147H325.08V151H337.08V147ZM323.08 149V161H327.08V149H323.08ZM325.08 159H313.08V163H325.08V159ZM384.12 161H382.12C382.12 162.105 383.015 163 384.12 163V161ZM384.12 149V147C383.015 147 382.12 147.895 382.12 149H384.12ZM408.12 149V151C409.225 151 410.12 150.105 410.12 149H408.12ZM408.12 89H410.12C410.12 87.8954 409.225 87 408.12 87V89ZM384.12 89H382.12C382.12 90.1046 383.015 91 384.12 91V89ZM384.12 77V75C383.015 75 382.12 75.8954 382.12 77H384.12ZM456.12 77H458.12C458.12 75.8954 457.225 75 456.12 75V77ZM456.12 89V91C457.225 91 458.12 90.1046 458.12 89H456.12ZM432.12 89V87C431.015 87 430.12 87.8954 430.12 89H432.12ZM432.12 149H430.12C430.12 150.105 431.015 151 432.12 151V149ZM456.12 149H458.12C458.12 147.895 457.225 147 456.12 147V149ZM456.12 161V163C457.225 163 458.12 162.105 458.12 161H456.12ZM386.12 161V149H382.12V161H386.12ZM384.12 151H408.12V147H384.12V151ZM410.12 149V89H406.12V149H410.12ZM408.12 87H384.12V91H408.12V87ZM386.12 89V77H382.12V89H386.12ZM384.12 79H456.12V75H384.12V79ZM454.12 77V89H458.12V77H454.12ZM456.12 87H432.12V91H456.12V87ZM430.12 89V149H434.12V89H430.12ZM432.12 151H456.12V147H432.12V151ZM454.12 149V161H458.12V149H454.12ZM456.12 159H384.12V163H456.12V159ZM467.16 161H465.16C465.16 162.105 466.055 163 467.16 163V161ZM467.16 77V75C466.055 75 465.16 75.8954 465.16 77H467.16ZM491.16 77H493.16C493.16 75.8954 492.265 75 491.16 75V77ZM491.16 89H489.16C489.16 90.1046 490.055 91 491.16 91V89ZM503.16 89H505.16C505.16 87.8954 504.265 87 503.16 87V89ZM503.16 101H501.16C501.16 102.105 502.055 103 503.16 103V101ZM515.16 101H517.16C517.16 99.8954 516.265 99 515.16 99V101ZM515.16 113H513.16C513.16 114.105 514.055 115 515.16 115V113ZM527.16 113V115C528.265 115 529.16 114.105 529.16 113H527.16ZM527.16 77V75C526.055 75 525.16 75.8954 525.16 77H527.16ZM551.16 77H553.16C553.16 75.8954 552.265 75 551.16 75V77ZM551.16 161V163C552.265 163 553.16 162.105 553.16 161H551.16ZM527.16 161H525.16C525.16 162.105 526.055 163 527.16 163V161ZM527.16 137H529.16C529.16 135.895 528.265 135 527.16 135V137ZM515.16 137H513.16C513.16 138.105 514.055 139 515.16 139V137ZM515.16 125H517.16C517.16 123.895 516.265 123 515.16 123V125ZM503.16 125H501.16C501.16 126.105 502.055 127 503.16 127V125ZM503.16 113H505.16C505.16 111.895 504.265 111 503.16 111V113ZM491.16 113V111C490.055 111 489.16 111.895 489.16 113H491.16ZM491.16 161V163C492.265 163 493.16 162.105 493.16 161H491.16ZM469.16 161V77H465.16V161H469.16ZM467.16 79H491.16V75H467.16V79ZM489.16 77V89H493.16V77H489.16ZM491.16 91H503.16V87H491.16V91ZM501.16 89V101H505.16V89H501.16ZM503.16 103H515.16V99H503.16V103ZM513.16 101V113H517.16V101H513.16ZM515.16 115H527.16V111H515.16V115ZM529.16 113V77H525.16V113H529.16ZM527.16 79H551.16V75H527.16V79ZM549.16 77V161H553.16V77H549.16ZM551.16 159H527.16V163H551.16V159ZM529.16 161V137H525.16V161H529.16ZM527.16 135H515.16V139H527.16V135ZM517.16 137V125H513.16V137H517.16ZM515.16 123H503.16V127H515.16V123ZM505.16 125V113H501.16V125H505.16ZM503.16 111H491.16V115H503.16V111ZM489.16 113V161H493.16V113H489.16ZM491.16 159H467.16V163H491.16V159Z" fill="#FFC947"/>
<path d="M127 261V211H137V201H147V191H177V201H187V211H197V261H177V241H147V261H127ZM147 231H177V211H167V201H157V211H147V231ZM206.2 261V191H266.2V201H276.2V231H256.2V241H266.2V251H276.2V261H246.2V251H236.2V241H226.2V261H206.2ZM226.2 231H246.2V221H256.2V201H226.2V231ZM295.4 261V251H315.4V201H295.4V191H355.4V201H335.4V251H355.4V261H295.4ZM364.6 261V211H374.6V201H384.6V191H414.6V201H424.6V211H434.6V261H414.6V241H384.6V261H364.6ZM384.6 231H414.6V211H404.6V201H394.6V211H384.6V231ZM453.8 261V251H443.8V241H463.8V251H493.8V231H453.8V221H443.8V201H453.8V191H503.8V201H513.8V211H493.8V201H463.8V221H503.8V231H513.8V251H503.8V261H453.8Z" fill="#FAFAFF"/>
<path d="M127 261H125C125 262.105 125.895 263 127 263V261ZM127 211V209C125.895 209 125 209.895 125 211H127ZM137 211V213C138.105 213 139 212.105 139 211H137ZM137 201V199C135.895 199 135 199.895 135 201H137ZM147 201V203C148.105 203 149 202.105 149 201H147ZM147 191V189C145.895 189 145 189.895 145 191H147ZM177 191H179C179 189.895 178.105 189 177 189V191ZM177 201H175C175 202.105 175.895 203 177 203V201ZM187 201H189C189 199.895 188.105 199 187 199V201ZM187 211H185C185 212.105 185.895 213 187 213V211ZM197 211H199C199 209.895 198.105 209 197 209V211ZM197 261V263C198.105 263 199 262.105 199 261H197ZM177 261H175C175 262.105 175.895 263 177 263V261ZM177 241H179C179 239.895 178.105 239 177 239V241ZM147 241V239C145.895 239 145 239.895 145 241H147ZM147 261V263C148.105 263 149 262.105 149 261H147ZM147 231H145C145 232.105 145.895 233 147 233V231ZM177 231V233C178.105 233 179 232.105 179 231H177ZM177 211H179C179 209.895 178.105 209 177 209V211ZM167 211H165C165 212.105 165.895 213 167 213V211ZM167 201H169C169 199.895 168.105 199 167 199V201ZM157 201V199C155.895 199 155 199.895 155 201H157ZM157 211V213C158.105 213 159 212.105 159 211H157ZM147 211V209C145.895 209 145 209.895 145 211H147ZM129 261V211H125V261H129ZM127 213H137V209H127V213ZM139 211V201H135V211H139ZM137 203H147V199H137V203ZM149 201V191H145V201H149ZM147 193H177V189H147V193ZM175 191V201H179V191H175ZM177 203H187V199H177V203ZM185 201V211H189V201H185ZM187 213H197V209H187V213ZM195 211V261H199V211H195ZM197 259H177V263H197V259ZM179 261V241H175V261H179ZM177 239H147V243H177V239ZM145 241V261H149V241H145ZM147 259H127V263H147V259ZM147 233H177V229H147V233ZM179 231V211H175V231H179ZM177 209H167V213H177V209ZM169 211V201H165V211H169ZM167 199H157V203H167V199ZM155 201V211H159V201H155ZM157 209H147V213H157V209ZM145 211V231H149V211H145ZM206.2 261H204.2C204.2 262.105 205.095 263 206.2 263V261ZM206.2 191V189C205.095 189 204.2 189.895 204.2 191H206.2ZM266.2 191H268.2C268.2 189.895 267.305 189 266.2 189V191ZM266.2 201H264.2C264.2 202.105 265.095 203 266.2 203V201ZM276.2 201H278.2C278.2 199.895 277.305 199 276.2 199V201ZM276.2 231V233C277.305 233 278.2 232.105 278.2 231H276.2ZM256.2 231V229C255.095 229 254.2 229.895 254.2 231H256.2ZM256.2 241H254.2C254.2 242.105 255.095 243 256.2 243V241ZM266.2 241H268.2C268.2 239.895 267.305 239 266.2 239V241ZM266.2 251H264.2C264.2 252.105 265.095 253 266.2 253V251ZM276.2 251H278.2C278.2 249.895 277.305 249 276.2 249V251ZM276.2 261V263C277.305 263 278.2 262.105 278.2 261H276.2ZM246.2 261H244.2C244.2 262.105 245.095 263 246.2 263V261ZM246.2 251H248.2C248.2 249.895 247.305 249 246.2 249V251ZM236.2 251H234.2C234.2 252.105 235.095 253 236.2 253V251ZM236.2 241H238.2C238.2 239.895 237.305 239 236.2 239V241ZM226.2 241V239C225.095 239 224.2 239.895 224.2 241H226.2ZM226.2 261V263C227.305 263 228.2 262.105 228.2 261H226.2ZM226.2 231H224.2C224.2 232.105 225.095 233 226.2 233V231ZM246.2 231V233C247.305 233 248.2 232.105 248.2 231H246.2ZM246.2 221V219C245.095 219 244.2 219.895 244.2 221H246.2ZM256.2 221V223C257.305 223 258.2 222.105 258.2 221H256.2ZM256.2 201H258.2C258.2 199.895 257.305 199 256.2 199V201ZM226.2 201V199C225.095 199 224.2 199.895 224.2 201H226.2ZM208.2 261V191H204.2V261H208.2ZM206.2 193H266.2V189H206.2V193ZM264.2 191V201H268.2V191H264.2ZM266.2 203H276.2V199H266.2V203ZM274.2 201V231H278.2V201H274.2ZM276.2 229H256.2V233H276.2V229ZM254.2 231V241H258.2V231H254.2ZM256.2 243H266.2V239H256.2V243ZM264.2 241V251H268.2V241H264.2ZM266.2 253H276.2V249H266.2V253ZM274.2 251V261H278.2V251H274.2ZM276.2 259H246.2V263H276.2V259ZM248.2 261V251H244.2V261H248.2ZM246.2 249H236.2V253H246.2V249ZM238.2 251V241H234.2V251H238.2ZM236.2 239H226.2V243H236.2V239ZM224.2 241V261H228.2V241H224.2ZM226.2 259H206.2V263H226.2V259ZM226.2 233H246.2V229H226.2V233ZM248.2 231V221H244.2V231H248.2ZM246.2 223H256.2V219H246.2V223ZM258.2 221V201H254.2V221H258.2ZM256.2 199H226.2V203H256.2V199ZM224.2 201V231H228.2V201H224.2ZM295.4 261H293.4C293.4 262.105 294.295 263 295.4 263V261ZM295.4 251V249C294.295 249 293.4 249.895 293.4 251H295.4ZM315.4 251V253C316.505 253 317.4 252.105 317.4 251H315.4ZM315.4 201H317.4C317.4 199.895 316.505 199 315.4 199V201ZM295.4 201H293.4C293.4 202.105 294.295 203 295.4 203V201ZM295.4 191V189C294.295 189 293.4 189.895 293.4 191H295.4ZM355.4 191H357.4C357.4 189.895 356.505 189 355.4 189V191ZM355.4 201V203C356.505 203 357.4 202.105 357.4 201H355.4ZM335.4 201V199C334.295 199 333.4 199.895 333.4 201H335.4ZM335.4 251H333.4C333.4 252.105 334.295 253 335.4 253V251ZM355.4 251H357.4C357.4 249.895 356.505 249 355.4 249V251ZM355.4 261V263C356.505 263 357.4 262.105 357.4 261H355.4ZM297.4 261V251H293.4V261H297.4ZM295.4 253H315.4V249H295.4V253ZM317.4 251V201H313.4V251H317.4ZM315.4 199H295.4V203H315.4V199ZM297.4 201V191H293.4V201H297.4ZM295.4 193H355.4V189H295.4V193ZM353.4 191V201H357.4V191H353.4ZM355.4 199H335.4V203H355.4V199ZM333.4 201V251H337.4V201H333.4ZM335.4 253H355.4V249H335.4V253ZM353.4 251V261H357.4V251H353.4ZM355.4 259H295.4V263H355.4V259ZM364.6 261H362.6C362.6 262.105 363.495 263 364.6 263V261ZM364.6 211V209C363.495 209 362.6 209.895 362.6 211H364.6ZM374.6 211V213C375.705 213 376.6 212.105 376.6 211H374.6ZM374.6 201V199C373.495 199 372.6 199.895 372.6 201H374.6ZM384.6 201V203C385.705 203 386.6 202.105 386.6 201H384.6ZM384.6 191V189C383.495 189 382.6 189.895 382.6 191H384.6ZM414.6 191H416.6C416.6 189.895 415.705 189 414.6 189V191ZM414.6 201H412.6C412.6 202.105 413.495 203 414.6 203V201ZM424.6 201H426.6C426.6 199.895 425.705 199 424.6 199V201ZM424.6 211H422.6C422.6 212.105 423.495 213 424.6 213V211ZM434.6 211H436.6C436.6 209.895 435.705 209 434.6 209V211ZM434.6 261V263C435.705 263 436.6 262.105 436.6 261H434.6ZM414.6 261H412.6C412.6 262.105 413.495 263 414.6 263V261ZM414.6 241H416.6C416.6 239.895 415.705 239 414.6 239V241ZM384.6 241V239C383.495 239 382.6 239.895 382.6 241H384.6ZM384.6 261V263C385.705 263 386.6 262.105 386.6 261H384.6ZM384.6 231H382.6C382.6 232.105 383.495 233 384.6 233V231ZM414.6 231V233C415.705 233 416.6 232.105 416.6 231H414.6ZM414.6 211H416.6C416.6 209.895 415.705 209 414.6 209V211ZM404.6 211H402.6C402.6 212.105 403.495 213 404.6 213V211ZM404.6 201H406.6C406.6 199.895 405.705 199 404.6 199V201ZM394.6 201V199C393.495 199 392.6 199.895 392.6 201H394.6ZM394.6 211V213C395.705 213 396.6 212.105 396.6 211H394.6ZM384.6 211V209C383.495 209 382.6 209.895 382.6 211H384.6ZM366.6 261V211H362.6V261H366.6ZM364.6 213H374.6V209H364.6V213ZM376.6 211V201H372.6V211H376.6ZM374.6 203H384.6V199H374.6V203ZM386.6 201V191H382.6V201H386.6ZM384.6 193H414.6V189H384.6V193ZM412.6 191V201H416.6V191H412.6ZM414.6 203H424.6V199H414.6V203ZM422.6 201V211H426.6V201H422.6ZM424.6 213H434.6V209H424.6V213ZM432.6 211V261H436.6V211H432.6ZM434.6 259H414.6V263H434.6V259ZM416.6 261V241H412.6V261H416.6ZM414.6 239H384.6V243H414.6V239ZM382.6 241V261H386.6V241H382.6ZM384.6 259H364.6V263H384.6V259ZM384.6 233H414.6V229H384.6V233ZM416.6 231V211H412.6V231H416.6ZM414.6 209H404.6V213H414.6V209ZM406.6 211V201H402.6V211H406.6ZM404.6 199H394.6V203H404.6V199ZM392.6 201V211H396.6V201H392.6ZM394.6 209H384.6V213H394.6V209ZM382.6 211V231H386.6V211H382.6ZM453.8 261H451.8C451.8 262.105 452.695 263 453.8 263V261ZM453.8 251H455.8C455.8 249.895 454.905 249 453.8 249V251ZM443.8 251H441.8C441.8 252.105 442.695 253 443.8 253V251ZM443.8 241V239C442.695 239 441.8 239.895 441.8 241H443.8ZM463.8 241H465.8C465.8 239.895 464.905 239 463.8 239V241ZM463.8 251H461.8C461.8 252.105 462.695 253 463.8 253V251ZM493.8 251V253C494.905 253 495.8 252.105 495.8 251H493.8ZM493.8 231H495.8C495.8 229.895 494.905 229 493.8 229V231ZM453.8 231H451.8C451.8 232.105 452.695 233 453.8 233V231ZM453.8 221H455.8C455.8 219.895 454.905 219 453.8 219V221ZM443.8 221H441.8C441.8 222.105 442.695 223 443.8 223V221ZM443.8 201V199C442.695 199 441.8 199.895 441.8 201H443.8ZM453.8 201V203C454.905 203 455.8 202.105 455.8 201H453.8ZM453.8 191V189C452.695 189 451.8 189.895 451.8 191H453.8ZM503.8 191H505.8C505.8 189.895 504.905 189 503.8 189V191ZM503.8 201H501.8C501.8 202.105 502.695 203 503.8 203V201ZM513.8 201H515.8C515.8 199.895 514.905 199 513.8 199V201ZM513.8 211V213C514.905 213 515.8 212.105 515.8 211H513.8ZM493.8 211H491.8C491.8 212.105 492.695 213 493.8 213V211ZM493.8 201H495.8C495.8 199.895 494.905 199 493.8 199V201ZM463.8 201V199C462.695 199 461.8 199.895 461.8 201H463.8ZM463.8 221H461.8C461.8 222.105 462.695 223 463.8 223V221ZM503.8 221H505.8C505.8 219.895 504.905 219 503.8 219V221ZM503.8 231H501.8C501.8 232.105 502.695 233 503.8 233V231ZM513.8 231H515.8C515.8 229.895 514.905 229 513.8 229V231ZM513.8 251V253C514.905 253 515.8 252.105 515.8 251H513.8ZM503.8 251V249C502.695 249 501.8 249.895 501.8 251H503.8ZM503.8 261V263C504.905 263 505.8 262.105 505.8 261H503.8ZM455.8 261V251H451.8V261H455.8ZM453.8 249H443.8V253H453.8V249ZM445.8 251V241H441.8V251H445.8ZM443.8 243H463.8V239H443.8V243ZM461.8 241V251H465.8V241H461.8ZM463.8 253H493.8V249H463.8V253ZM495.8 251V231H491.8V251H495.8ZM493.8 229H453.8V233H493.8V229ZM455.8 231V221H451.8V231H455.8ZM453.8 219H443.8V223H453.8V219ZM445.8 221V201H441.8V221H445.8ZM443.8 203H453.8V199H443.8V203ZM455.8 201V191H451.8V201H455.8ZM453.8 193H503.8V189H453.8V193ZM501.8 191V201H505.8V191H501.8ZM503.8 203H513.8V199H503.8V203ZM511.8 201V211H515.8V201H511.8ZM513.8 209H493.8V213H513.8V209ZM495.8 211V201H491.8V211H495.8ZM493.8 199H463.8V203H493.8V199ZM461.8 201V221H465.8V201H461.8ZM463.8 223H503.8V219H463.8V223ZM501.8 221V231H505.8V221H501.8ZM503.8 233H513.8V229H503.8V233ZM511.8 231V251H515.8V231H511.8ZM513.8 249H503.8V253H513.8V249ZM501.8 251V261H505.8V251H501.8ZM503.8 259H453.8V263H503.8V259Z" fill="#FAFAFF"/>
<rect x="28.7501" width="323.555" height="28.75" transform="rotate(90 28.7501 0)" fill="#FAFAFF"/>
<rect x="69" width="30" height="69" transform="rotate(90 69 0)" fill="#FAFAFF"/>
<rect x="69" y="294" width="30" height="69" transform="rotate(90 69 294)" fill="#FAFAFF"/>
<rect x="610.25" y="323.944" width="323.555" height="28.75" transform="rotate(-90 610.25 323.944)" fill="#FAFAFF"/>
<rect x="570" y="324" width="30" height="69" transform="rotate(-90 570 324)" fill="#FAFAFF"/>
<rect x="570" y="30" width="30" height="69" transform="rotate(-90 570 30)" fill="#FAFAFF"/>
</svg>
